<?xml version="1.0" encoding="UTF-8" standalone="no"?>
<svg
   xmlns:dc="http://purl.org/dc/elements/1.1/"
   xmlns:cc="http://creativecommons.org/ns#"
   xmlns:rdf="http://www.w3.org/1999/02/22-rdf-syntax-ns#"
   xmlns:svg="http://www.w3.org/2000/svg"
   xmlns="http://www.w3.org/2000/svg"
   version="1.1"
   id="svg1025"
   width="428.48001"
   height="672"
   viewBox="0 0 428.48001 672">
  <metadata
     id="metadata1031">
    <rdf:RDF>
      <cc:Work
         rdf:about="">
        <dc:format>image/svg+xml</dc:format>
        <dc:type
           rdf:resource="http://purl.org/dc/dcmitype/StillImage" />
        <dc:title></dc:title>
      </cc:Work>
    </rdf:RDF>
  </metadata>
  <defs
     id="defs1029" />
  <g
     id="g1033"
     style="display:inline">
    <path
       id="path1051"
       style="fill:#000000;stroke-width:0.32"
       d="M 1.09375 1.09375 L 1.09375 337.09375 L 1.09375 673.09375 L 215.33398 673.09375 L 429.57422 673.09375 L 429.57422 337.09375 L 429.57422 1.09375 L 215.33398 1.09375 L 1.09375 1.09375 z M 215.70312 76.095703 C 226.19975 76.090837 236.60014 76.471331 240.61328 77.238281 C 241.49328 77.406457 243.29328 77.689842 244.61328 77.869141 C 246.82921 78.170136 249.02344 78.585299 253.07422 79.470703 C 255.48228 79.997046 259.2875 81.366584 261.28906 82.425781 C 263.46642 83.578011 265.01574 85.150541 266.28125 87.494141 C 266.80395 88.462141 268.88984 92.276655 270.91797 95.972656 C 278.3012 109.42762 281.04154 114.69644 290.47461 133.57422 C 300.07054 152.77794 301.66398 156.1019 309.88672 174.05273 C 314.52115 184.17002 317.83625 191.71717 324.29297 206.85352 C 329.76183 219.67408 338.53501 242.03647 343.5625 255.97266 C 348.52381 269.72537 354.13006 286.55758 357.89844 299.01367 C 358.45751 300.86167 359.1188 303.0205 359.36914 303.8125 C 360.41432 307.11918 363.72253 318.8726 364.77344 323.01367 C 365.0191 323.98167 365.45431 325.63736 365.74023 326.69336 C 366.02618 327.74936 366.46557 329.44112 366.7168 330.45312 C 366.96803 331.46512 367.39898 333.19297 367.67578 334.29297 C 367.95258 335.39297 368.34944 337.08473 368.55664 338.05273 C 368.76384 339.02073 369.02485 339.95681 369.13672 340.13281 C 369.24859 340.30881 369.44644 341.24018 369.57617 342.20117 C 369.70589 343.16213 369.92849 344.17037 370.07031 344.44141 C 370.2121 344.71242 370.49704 345.79752 370.70508 346.85352 C 370.91311 347.90952 371.29186 349.70952 371.54688 350.85352 C 372.28058 354.14526 373.43032 359.76917 374.42383 364.93359 C 377.21833 379.46002 379.37293 394.6098 380.50391 407.53711 C 379.36053 394.73019 377.22991 379.81289 374.47461 365.49023 C 373.4811 360.32581 372.33331 354.7019 371.59961 351.41016 C 371.3446 350.26616 370.96584 348.46616 370.75781 347.41016 C 370.54977 346.35416 370.26288 345.26906 370.12109 344.99805 C 369.97927 344.72701 369.75667 343.71877 369.62695 342.75781 C 369.49722 341.79682 369.29937 340.86545 369.1875 340.68945 C 369.07563 340.51345 368.81462 339.57738 368.60742 338.60938 C 368.40022 337.64137 368.00532 335.94961 367.72852 334.84961 C 367.45172 333.74961 367.01881 332.02177 366.76758 331.00977 C 366.51635 329.99777 366.07697 328.306 365.79102 327.25 C 365.5051 326.194 365.06988 324.53831 364.82422 323.57031 C 363.77331 319.42924 360.46706 307.67777 359.42188 304.37109 C 359.17154 303.57909 358.50829 301.41831 357.94922 299.57031 C 354.18084 287.11422 348.57459 270.28201 343.61328 256.5293 C 338.58579 242.59311 329.81261 220.23072 324.34375 207.41016 C 317.88703 192.27381 314.57388 184.72667 309.93945 174.60938 C 301.71671 156.65855 300.12132 153.33458 290.52539 134.13086 C 281.09232 115.25308 278.35198 109.98427 270.96875 96.529297 C 268.94062 92.833296 266.85473 89.018781 266.33203 88.050781 C 265.06652 85.707181 263.5172 84.134652 261.33984 82.982422 C 259.33828 81.923225 255.53306 80.553687 253.125 80.027344 C 249.07422 79.14194 246.87999 78.726776 244.66406 78.425781 C 243.34406 78.246482 241.54406 77.963098 240.66406 77.794922 C 232.63777 76.261021 199.06631 76.276663 190.26562 77.818359 C 189.29763 77.987933 187.49762 78.267742 186.26562 78.441406 C 184.17613 78.735941 181.77168 79.194832 177.96289 80.027344 C 173.25952 81.055389 168.52689 83.261122 166.65039 85.296875 C 165.37294 86.682757 161.77858 93.155049 153.30273 109.33008 C 150.92238 113.87266 138.23912 139.21963 136.57031 142.76953 C 135.86705 144.26553 134.19569 147.77458 132.85742 150.56641 C 131.51914 153.35825 130.42383 155.68034 130.42383 155.72656 C 130.42383 155.77276 129.65079 157.44923 128.70508 159.45117 C 127.75937 161.45311 126.66009 163.80945 126.26172 164.68945 C 125.86336 165.56945 124.90854 167.63504 124.14062 169.2793 C 123.37269 170.92357 122.74414 172.31955 122.74414 172.38086 C 122.74414 172.44216 122.15549 173.76013 121.43555 175.31055 C 120.7156 176.86097 119.76313 178.99478 119.31836 180.05078 C 118.87359 181.10678 118.03413 182.99986 117.45312 184.25781 C 116.87211 185.51577 114.35904 191.34676 111.86914 197.2168 C 109.37924 203.08685 107.21374 208.1773 107.05664 208.5293 C 105.75395 211.44822 99.084208 228.18239 95.705078 237.00977 C 95.233468 238.24177 94.662707 239.68294 94.435547 240.21094 C 94.208397 240.73894 93.341879 243.04208 92.511719 245.33008 C 91.681569 247.61808 90.809629 249.99338 90.574219 250.60938 C 90.037299 252.0143 87.45813 259.16423 86.1875 262.76953 C 85.66025 264.26553 84.834866 266.57063 84.353516 267.89062 C 83.229666 270.97255 76.175497 292.54877 74.310547 298.60938 C 72.244327 305.32409 69.440399 314.82778 68.974609 316.68945 C 68.738799 317.63189 68.475057 318.60164 67.060547 323.73047 C 66.173607 326.94641 65.841841 328.23206 64.212891 334.76953 C 63.489301 337.67353 62.764696 340.55392 62.603516 341.16992 C 62.200486 342.71027 61.445009 345.89744 60.667969 349.33008 C 60.309409 350.91408 59.875508 352.78623 59.705078 353.49023 C 59.534638 354.19423 59.242657 355.5613 59.054688 356.5293 C 58.866728 357.4973 58.498368 359.2973 58.236328 360.5293 C 57.546698 363.77167 56.844623 367.39368 55.351562 375.41016 C 52.844012 388.87352 50.585868 406.49935 49.798828 418.76953 C 49.618198 421.58553 49.326257 425.4095 49.148438 427.26562 C 48.732887 431.60332 48.727355 454.21833 49.140625 458.60938 C 49.314585 460.45738 49.612004 463.98717 49.802734 466.45117 C 50.009962 469.12832 50.131232 470.59387 50.251953 471.83203 C 50.376352 473.03562 50.500533 473.94822 50.707031 475.33398 C 50.903731 476.65398 51.108399 478.16536 51.162109 478.69336 C 51.304519 480.0932 51.956495 484.22554 52.296875 485.89258 C 55.802295 503.06036 59.571622 514.55368 65.732422 526.85352 C 73.732032 542.82446 84.363327 556.02208 97.742188 566.5918 C 101.27016 569.379 101.63172 569.64487 105.25391 572.12305 C 123.31903 584.48267 148.87161 593.29326 175.33398 596.28516 C 176.91798 596.46426 179.22113 596.75401 180.45312 596.92969 C 181.68512 597.10534 185.35329 597.4038 188.60547 597.5918 C 191.85764 597.7798 194.583 597.99512 194.66016 598.07227 C 194.94892 598.36104 224.12639 598.2082 227.8125 597.89844 C 229.9245 597.72097 233.66881 597.4251 236.13281 597.24219 C 248.10461 596.35345 262.26618 594.16629 271.97266 591.70703 C 273.02866 591.43948 274.7565 591.00349 275.8125 590.73828 C 279.76154 589.74644 280.63014 589.51167 281.25391 589.26562 C 281.60591 589.12677 282.97297 588.69714 284.29297 588.31055 C 285.61297 587.92396 286.92851 587.48355 287.21484 587.33203 C 287.50117 587.18054 288.25882 586.95984 288.89844 586.83984 C 289.53805 586.71987 290.13988 586.49396 290.23633 586.33789 C 290.33273 586.18186 290.65551 586.05186 290.95312 586.05078 C 291.25074 586.05078 291.90604 585.83521 292.41016 585.57227 C 292.91427 585.30935 293.46735 585.09375 293.64062 585.09375 C 293.81392 585.09375 294.41024 584.88888 294.96484 584.63867 C 295.51943 584.38846 297.77266 583.43697 299.97266 582.52539 C 304.59356 580.6107 313.55001 576.06757 317.73242 573.51562 C 323.2481 570.15018 327.10407 567.40846 333.57422 562.24805 C 336.53569 559.88603 347.04094 549.41005 348.85156 547.01367 C 349.58295 546.04567 351.02391 544.17352 352.05469 542.85352 C 357.49383 535.88834 364.02371 524.74862 367.7168 516.13281 C 370.27712 510.15969 373.23161 501.93176 374.38086 497.57422 C 374.61295 496.69422 375.04051 495.10873 375.33008 494.05273 C 377.1335 487.47548 379.05743 477.39837 379.97461 469.73242 C 380.16415 468.14842 380.46222 465.91744 380.63672 464.77344 C 381.6531 458.1104 382.29324 429.82599 381.60742 421.89258 C 381.41724 419.69258 381.11094 415.66159 380.92578 412.93359 C 380.80832 411.20295 380.6674 409.41768 380.50781 407.58984 C 380.68778 409.60951 380.84739 411.58713 380.97656 413.49023 C 381.16172 416.21823 381.46998 420.25117 381.66016 422.45117 C 382.34598 430.38458 381.70388 458.66704 380.6875 465.33008 C 380.513 466.47408 380.21493 468.70702 380.02539 470.29102 C 379.10821 477.95697 377.18428 488.03213 375.38086 494.60938 C 375.09129 495.66538 374.66373 497.25086 374.43164 498.13086 C 373.28239 502.4884 370.3279 510.71633 367.76758 516.68945 C 364.07449 525.30526 357.54656 536.44498 352.10742 543.41016 C 351.07664 544.73016 349.63373 546.60231 348.90234 547.57031 C 347.09172 549.96669 336.58647 560.44267 333.625 562.80469 C 327.15485 567.9651 323.30084 570.70683 317.78516 574.07227 C 313.60275 576.62421 304.64629 581.16734 300.02539 583.08203 C 297.82539 583.99361 295.57022 584.9451 295.01562 585.19531 C 294.46103 585.44552 293.86665 585.65039 293.69336 585.65039 C 293.52008 585.65039 292.96505 585.86599 292.46094 586.12891 C 291.95682 586.39185 291.30153 586.60742 291.00391 586.60742 C 290.7063 586.6085 290.38351 586.7385 290.28711 586.89453 C 290.19066 587.0506 289.58883 587.27651 288.94922 587.39648 C 288.3096 587.51648 287.55196 587.73718 287.26562 587.88867 C 286.97929 588.04019 285.66375 588.4806 284.34375 588.86719 C 283.02375 589.25378 281.65669 589.68342 281.30469 589.82227 C 280.68092 590.06832 279.81427 590.30308 275.86523 591.29492 C 274.80923 591.56013 273.08139 591.99612 272.02539 592.26367 C 262.31891 594.72293 248.15735 596.91009 236.18555 597.79883 C 233.72155 597.98174 229.97723 598.27761 227.86523 598.45508 C 224.17912 598.76484 194.9997 598.91963 194.71094 598.63086 C 194.63378 598.55371 191.91037 598.33644 188.6582 598.14844 C 185.40602 597.96044 181.73591 597.66198 180.50391 597.48633 C 179.27191 597.31065 176.96877 597.0209 175.38477 596.8418 C 148.9224 593.8499 123.36981 585.03931 105.30469 572.67969 C 101.6825 570.20151 101.32094 569.93564 97.792969 567.14844 C 84.414109 556.57872 73.782813 543.3811 65.783203 527.41016 C 59.622403 515.11032 55.853076 503.61895 52.347656 486.45117 C 52.007276 484.78413 51.357254 480.64984 51.214844 479.25 C 51.161134 478.722 50.956466 477.21062 50.759766 475.89062 C 50.529424 474.34485 50.391604 473.26434 50.251953 471.83203 C 50.117636 470.53248 49.983995 468.89029 49.751953 465.89258 C 49.561223 463.42858 49.261851 459.90073 49.087891 458.05273 C 48.674621 453.66169 48.680153 431.04668 49.095703 426.70898 C 49.273523 424.85285 49.567417 421.02889 49.748047 418.21289 C 50.535087 405.94271 52.791278 388.31688 55.298828 374.85352 C 56.791888 366.83704 57.493964 363.21503 58.183594 359.97266 C 58.445634 358.74066 58.813993 356.94066 59.001953 355.97266 C 59.189923 355.00466 59.483857 353.63759 59.654297 352.93359 C 59.824727 352.22959 60.256674 350.35744 60.615234 348.77344 C 61.392274 345.3408 62.149704 342.15363 62.552734 340.61328 C 62.713914 339.99728 63.436566 337.11689 64.160156 334.21289 C 65.789106 327.67542 66.120873 326.38977 67.007812 323.17383 C 68.422322 318.045 68.686065 317.07525 68.921875 316.13281 C 69.387665 314.27114 72.193546 304.76744 74.259766 298.05273 C 76.124716 291.99212 83.178884 270.41591 84.302734 267.33398 C 84.784084 266.01398 85.609469 263.70889 86.136719 262.21289 C 87.407349 258.60759 89.986518 251.45765 90.523438 250.05273 C 90.758848 249.43673 91.630787 247.06144 92.460938 244.77344 C 93.291098 242.48544 94.155663 240.1823 94.382812 239.6543 C 94.609973 239.1263 95.182687 237.68512 95.654297 236.45312 C 99.033427 227.62575 105.70317 210.89158 107.00586 207.97266 C 107.16296 207.62066 109.32846 202.53021 111.81836 196.66016 C 114.30826 190.79012 116.82132 184.95913 117.40234 183.70117 C 117.98335 182.44322 118.82281 180.55014 119.26758 179.49414 C 119.71235 178.43814 120.66482 176.30433 121.38477 174.75391 C 122.10471 173.20349 122.69336 171.88552 122.69336 171.82422 C 122.69336 171.76291 123.32191 170.36693 124.08984 168.72266 C 124.85776 167.0784 125.81258 165.01281 126.21094 164.13281 C 126.60931 163.25281 127.70859 160.89452 128.6543 158.89258 C 129.60001 156.89064 130.37305 155.21612 130.37305 155.16992 C 130.37305 155.1237 131.46836 152.80161 132.80664 150.00977 C 134.14491 147.21794 135.81432 143.70889 136.51758 142.21289 C 138.18639 138.66299 150.86965 113.31602 153.25 108.77344 C 161.72585 92.598416 165.32216 86.124163 166.59961 84.738281 C 168.47611 82.702528 173.20874 80.498748 177.91211 79.470703 C 181.7209 78.638191 184.1234 78.179301 186.21289 77.884766 C 187.44489 77.711102 189.24489 77.431293 190.21289 77.261719 C 194.61324 76.490871 205.2065 76.100569 215.70312 76.095703 z M 215.49414 78.109375 C 229.01329 78.095035 236.52078 78.625872 246.5332 80.298828 C 250.81745 81.014675 250.67029 80.984258 252.61328 81.537109 C 253.58128 81.812539 254.73383 82.126533 255.17383 82.236328 C 258.91868 83.170789 263.49414 85.884406 263.49414 87.169922 C 263.49414 88.368236 260.80026 90.183608 257.25391 91.375 C 256.19791 91.729762 255.04536 92.147365 254.69336 92.304688 C 254.34136 92.462006 253.26097 92.750143 252.29297 92.943359 C 251.32497 93.136575 249.45281 93.510185 248.13281 93.775391 C 244.78567 94.447877 239.70147 95.123804 235.17383 95.496094 C 233.06183 95.669754 229.82066 95.955963 227.97266 96.132812 C 224.06242 96.507013 205.81638 96.488812 202.5332 96.107422 C 201.3012 95.964312 198.34866 95.694996 195.97266 95.509766 C 190.24276 95.063086 181.16887 93.754338 180.2168 93.236328 C 179.91118 93.07005 179.39702 92.933594 179.07227 92.933594 C 178.48178 92.933594 174.62121 91.843637 173.41406 91.335938 C 169.11132 89.526298 167.8125 88.56202 167.8125 87.173828 C 167.8125 85.094849 171.59918 83.208982 179.8125 81.199219 C 188.20093 79.146611 199.98673 78.125814 215.49414 78.109375 z M 166.08594 89.451172 C 166.14424 89.383752 166.70557 89.78028 167.33398 90.332031 C 172.88138 95.202712 192.63236 98.544543 215.6543 98.507812 C 238.79694 98.470912 258.11505 95.193949 263.60352 90.375 C 264.86726 89.265425 264.77065 89.196335 266.5332 92.453125 C 267.19994 93.685125 268.42375 95.918062 269.25391 97.414062 C 270.08408 98.910066 271.38101 101.28536 272.13477 102.69336 C 272.88853 104.10136 274.12252 106.4045 274.87695 107.8125 C 278.44039 114.46306 281.34224 120.13577 288.2207 133.89258 C 295.18926 147.82958 297.75034 153.07881 301.07812 160.24023 C 301.8279 161.85375 302.98257 164.32442 303.64453 165.73242 C 304.30649 167.14042 305.20982 169.08473 305.65039 170.05273 C 306.09096 171.02073 306.84892 172.67642 307.33594 173.73242 C 309.04154 177.43058 311.42316 182.71513 312.45703 185.09375 C 313.03077 186.41375 313.89423 188.35806 314.375 189.41406 C 314.85576 190.47006 317.14771 195.79791 319.46875 201.25391 C 321.78978 206.70991 323.81711 211.4605 323.97461 211.8125 C 324.35362 212.65946 326.26756 217.35815 328.01562 221.73242 C 328.78933 223.66842 329.55417 225.54058 329.71484 225.89258 C 330.19545 226.94534 333.42784 235.23702 334.83008 239.01367 C 335.54893 240.94967 336.26414 242.82183 336.41797 243.17383 C 336.57179 243.52583 336.94524 244.46191 337.24805 245.25391 C 337.5509 246.04591 337.99988 247.16617 338.24609 247.74414 C 338.49233 248.32211 338.69336 248.94929 338.69336 249.13672 C 338.69336 249.32415 338.89313 249.92978 339.13672 250.48438 C 339.38027 251.03897 340.33 253.58081 341.24805 256.13281 C 342.16609 258.68481 343.03732 261.06206 343.18359 261.41406 C 343.99828 263.37466 352.10875 287.6497 354.19531 294.37305 C 354.85077 296.48505 355.50802 298.57367 355.65625 299.01367 C 355.80447 299.45367 356.2351 300.89289 356.61328 302.21289 C 356.99145 303.53289 357.42343 304.97406 357.57227 305.41406 C 357.7211 305.85406 358.06855 307.00466 358.3457 307.97266 C 358.62282 308.94066 359.22398 311.02928 359.68164 312.61328 C 360.13927 314.19728 360.71319 316.24903 360.95703 317.17383 C 361.2009 318.09863 361.6052 319.61196 361.85547 320.53516 C 362.93022 324.49953 364.39124 330.12434 365.11719 333.09375 C 365.54746 334.85375 366.04184 336.79806 366.21484 337.41406 C 366.38783 338.03006 366.82247 339.83006 367.18164 341.41406 C 367.54081 342.99806 368.04994 345.22905 368.3125 346.37305 C 369.44194 351.29468 369.81575 353.03027 371.68359 362.05273 C 372.56637 366.31679 374.51677 377.49153 375.34375 383.01367 C 377.81741 399.53153 378.66075 408.23288 379.68359 427.8125 C 380.09879 435.76047 379.94941 443.76022 379.16797 455.33398 C 378.07008 471.59388 375.80466 484.94816 371.97461 497.73242 C 371.42098 499.58042 370.78016 501.7412 370.55078 502.5332 C 369.8126 505.08197 366.67433 513.13708 364.81641 517.25391 C 361.1647 525.34543 355.63301 534.73691 350.58594 541.41406 C 343.98405 550.14814 333.99479 559.85657 325.41406 565.87695 C 318.20289 570.93644 310.42918 575.43836 303.65039 578.48242 C 301.364 579.50914 299.0612 580.54907 298.5332 580.79297 C 292.87525 583.40651 276.60068 588.58289 269.89258 589.90234 C 269.10058 590.05812 267.15822 590.46536 265.57422 590.80859 C 257.48117 592.56229 247.71966 593.96617 236.13281 595.04102 C 230.40328 595.57251 226.11541 595.71053 213.09375 595.78906 C 204.29375 595.84216 195.86905 595.83574 194.37305 595.77344 C 185.99862 595.4255 172.8086 593.91762 163.65234 592.26172 C 147.13136 589.27391 130.98069 583.99321 118.85352 577.61523 C 111.263 573.6232 107.87506 571.49657 101.41406 566.67188 C 89.26125 557.59686 80.359718 547.71397 72.267578 534.30664 C 70.078508 530.67969 65.707524 522.16012 64.490234 519.14844 C 64.246674 518.54588 63.863462 517.62175 63.638672 517.09375 C 62.223992 513.77097 60.065485 507.54245 58.703125 502.85352 C 58.319595 501.53352 57.886737 500.0943 57.742188 499.6543 C 57.064728 497.59219 54.821318 487.54232 54.205078 483.8125 C 52.343208 472.54364 51.678582 465.78682 50.976562 450.96484 C 50.604942 443.11857 50.629343 441.36447 51.283203 429.04492 C 52.451363 407.03561 54.223343 392.15345 58.189453 371.01367 C 59.081833 366.25719 60.943835 357.15762 61.890625 352.93359 C 63.084645 347.60661 63.997746 343.70256 64.472656 341.89258 C 64.732816 340.90106 65.083094 339.49918 66.865234 332.29297 C 67.362244 330.28324 67.808501 328.58829 69.269531 323.17383 C 70.371251 319.09092 70.643999 318.11609 71.949219 313.57422 C 72.404419 311.99022 73.00411 309.90159 73.28125 308.93359 C 73.55839 307.96559 73.905857 306.81305 74.054688 306.37305 C 74.203508 305.93305 74.635492 304.49383 75.013672 303.17383 C 75.391862 301.85383 75.822473 300.41266 75.970703 299.97266 C 76.118923 299.53266 76.778387 297.44598 77.435547 295.33398 C 78.583497 291.64471 79.108053 290.0093 82.220703 280.45312 C 82.994623 278.07713 84.511817 273.6132 85.591797 270.5332 C 86.671787 267.4532 87.746839 264.3583 87.980469 263.6543 C 88.214089 262.9503 88.930186 260.93383 89.572266 259.17383 C 90.214346 257.41383 90.85692 255.61383 91 255.17383 C 91.442 253.81457 97.917969 236.6279 99.818359 231.77148 C 102.42992 225.09766 105.39095 217.67291 105.73438 216.93359 C 105.8979 216.58159 106.54685 214.99806 107.17773 213.41406 C 107.80861 211.83006 108.45408 210.24458 108.61133 209.89258 C 108.76857 209.54058 111.44191 203.27666 114.55273 195.97266 C 117.66354 188.66866 120.76796 181.49095 121.45117 180.02148 C 122.13437 178.552 122.69336 177.29924 122.69336 177.23828 C 122.69336 177.13848 124.83248 172.4093 127.17188 167.33398 C 127.65863 166.27798 128.41685 164.6223 128.85742 163.6543 C 129.29799 162.6863 130.19937 160.74198 130.86133 159.33398 C 131.52329 157.92598 132.67795 155.45336 133.42773 153.83984 C 140.37335 138.89277 155.6458 108.51816 162.92383 95.173828 C 165.65419 90.167705 165.98565 89.567169 166.08594 89.451172 z " />
    <path
       style="fill:#000000;stroke-width:0.32"
       id="path1049"
       d="" />
  </g>
  <g
     id="layer1"
     style="display:inline" />
</svg>
